<?xml version="1.0" standalone="no"?>
<!DOCTYPE svg PUBLIC "-//W3C//DTD SVG 20010904//EN"
 "http://www.w3.org/TR/2001/REC-SVG-20010904/DTD/svg10.dtd">
<svg version="1.0" xmlns="http://www.w3.org/2000/svg"
 width="178.000000pt" height="42.000000pt" viewBox="0 0 178.000000 42.000000"
 preserveAspectRatio="xMidYMid meet">

<g transform="translate(0.000000,42.000000) scale(0.100000,-0.100000)"
fill="#000000" stroke="none">
<path d="M118 285 c-2 -66 -2 -122 -1 -124 1 -2 10 9 19 25 25 44 62 67 115
72 55 5 106 -20 129 -63 7 -14 17 -25 22 -25 4 0 8 52 8 115 l0 115 -45 0
c-38 0 -45 -3 -45 -20 0 -11 -4 -20 -10 -20 -5 0 -10 9 -10 20 0 17 -7 20 -40
20 -33 0 -40 -3 -40 -20 0 -11 -4 -20 -10 -20 -5 0 -10 9 -10 19 0 15 -9 20
-39 23 l-40 3 -3 -120z"/>
<path d="M492 368 c-19 -19 -15 -66 7 -78 21 -10 51 -4 51 11 0 5 -10 8 -22 6
-18 -2 -23 3 -23 23 0 40 32 38 49 -4 8 -20 21 -37 28 -37 27 -3 43 3 56 19
11 14 12 14 12 -1 0 -9 5 -17 10 -17 6 0 10 12 10 26 l0 25 24 -28 c30 -35 38
-28 34 28 l-4 44 -8 -33 -9 -33 -18 31 c-20 31 -39 33 -39 2 0 -13 -3 -12 -16
6 -18 26 -46 29 -65 6 -11 -14 -13 -14 -21 0 -11 19 -39 21 -56 4z m122 -14
c22 -8 20 -31 -2 -43 -24 -13 -42 3 -35 30 6 20 12 23 37 13z"/>
<path d="M752 368 c-32 -32 1 -98 42 -82 23 9 20 27 -4 21 -10 -3 -24 1 -31 9
-16 19 8 47 33 40 12 -3 18 0 15 7 -5 17 -40 20 -55 5z"/>
<path d="M824 366 c-3 -8 -4 -29 -2 -48 3 -33 4 -33 56 -35 40 -2 52 1 52 12
0 8 -7 15 -15 15 -10 0 -15 10 -15 29 0 17 -4 33 -10 36 -6 4 -10 -8 -10 -29
0 -31 -3 -36 -22 -35 -17 1 -19 2 -5 6 21 5 23 23 2 23 -8 0 -15 5 -15 10 0 6
7 10 15 10 8 0 15 5 15 10 0 15 -40 12 -46 -4z"/>
<path d="M946 368 c-13 -29 -3 -82 18 -86 10 -2 23 1 29 7 9 9 6 13 -10 17
-17 5 -23 15 -25 43 -3 26 -6 31 -12 19z"/>
<path d="M1006 364 c-21 -20 -20 -47 2 -66 18 -15 27 -16 55 -4 24 11 23 62
-2 76 -27 14 -37 13 -55 -6z m52 -28 c4 -21 -14 -37 -35 -29 -14 5 -18 35 -6
47 12 12 38 1 41 -18z"/>
<path d="M1116 364 c-11 -27 -7 -61 9 -74 22 -18 65 12 65 45 0 38 -61 62 -74
29z m43 -6 c18 -11 18 -48 1 -48 -5 0 -15 -3 -24 -6 -12 -5 -16 1 -16 23 0 43
9 50 39 31z"/>
<path d="M1200 367 c0 -9 10 -12 30 -9 17 2 30 8 30 13 0 5 -13 9 -30 9 -18 0
-30 -5 -30 -13z"/>
<path d="M1202 313 c2 -21 8 -28 26 -28 29 0 30 18 0 27 l-23 6 23 1 c31 1 28
21 -4 21 -22 0 -25 -4 -22 -27z"/>
<path d="M212 184 c-21 -17 -24 -24 -12 -27 110 -36 139 -44 143 -40 3 2 1 18
-5 34 -18 53 -84 70 -126 33z"/>
</g>
</svg>
